<svg width="160" height="24" viewBox="0 0 160 24" fill="none" xmlns="http://www.w3.org/2000/svg">
<path d="M0 8.06358C0 5.24107 0 3.82981 0.549299 2.75175C1.03248 1.80346 1.80346 1.03248 2.75175 0.549299C3.82981 0 5.24107 0 8.06359 0H62.6957C65.5182 0 66.9294 0 68.0075 0.549299C68.9558 1.03248 69.7268 1.80346 70.21 2.75175C70.7593 3.82981 70.7593 5.24107 70.7593 8.06359V15.9364C70.7593 18.7589 70.7593 20.1702 70.21 21.2483C69.7268 22.1965 68.9558 22.9675 68.0075 23.4507C66.9294 24 65.5182 24 62.6957 24H8.06359C5.24107 24 3.82981 24 2.75175 23.4507C1.80346 22.9675 1.03248 22.1965 0.549299 21.2483C0 20.1702 0 18.7589 0 15.9364V8.06358Z" fill="#1077E3"/>
<path d="M16.1735 4.8387H19.2185V18.9362H16.1735V16.9062C15.0269 18.5039 13.3821 19.3028 11.2393 19.3028C9.30326 19.3028 7.64915 18.5885 6.27699 17.1599C4.90483 15.7126 4.21875 13.9551 4.21875 11.8875C4.21875 9.80103 4.90483 8.04354 6.27699 6.61499C7.64915 5.18644 9.30326 4.47217 11.2393 4.47217C13.3821 4.47217 15.0269 5.26163 16.1735 6.84055V4.8387ZM8.53259 15.1299C9.37844 15.9757 10.4405 16.3987 11.7186 16.3987C12.9968 16.3987 14.0588 15.9757 14.9047 15.1299C15.7505 14.2652 16.1735 13.1844 16.1735 11.8875C16.1735 10.5905 15.7505 9.51908 14.9047 8.67323C14.0588 7.80858 12.9968 7.37626 11.7186 7.37626C10.4405 7.37626 9.37844 7.80858 8.53259 8.67323C7.68674 9.51908 7.26381 10.5905 7.26381 11.8875C7.26381 13.1844 7.68674 14.2652 8.53259 15.1299Z" fill="white"/>
<path d="M24.8562 8.72962C24.8562 9.19954 25.11 9.57547 25.6175 9.85742C26.1438 10.1206 26.7735 10.3555 27.5065 10.5623C28.2584 10.7503 29.0103 10.9758 29.7621 11.239C30.514 11.5021 31.1437 11.9533 31.6512 12.5923C32.1775 13.2126 32.4407 14.0021 32.4407 14.9607C32.4407 16.3141 31.9144 17.3761 30.8617 18.1468C29.8279 18.9174 28.5216 19.3028 26.9426 19.3028C25.5517 19.3028 24.3581 19.0114 23.3619 18.4287C22.3656 17.846 21.642 17.0378 21.1908 16.0039L23.813 14.4814C24.3017 15.8348 25.3449 16.5115 26.9426 16.5115C28.5404 16.5115 29.3392 15.9851 29.3392 14.9325C29.3392 14.4814 29.0761 14.1149 28.5498 13.8329C28.0422 13.551 27.4126 13.316 26.6607 13.128C25.9276 12.9213 25.1851 12.6863 24.4333 12.4232C23.6814 12.16 23.0423 11.7277 22.516 11.1262C22.0085 10.5059 21.7547 9.72584 21.7547 8.78601C21.7547 7.48904 22.2435 6.44582 23.2209 5.65636C24.2171 4.8669 25.4483 4.47217 26.9144 4.47217C28.0798 4.47217 29.1137 4.73532 30.0159 5.26163C30.9369 5.76914 31.6418 6.48341 32.1305 7.40445L29.5648 8.8424C29.0761 7.77099 28.1926 7.23528 26.9144 7.23528C26.3317 7.23528 25.843 7.36686 25.4483 7.63001C25.0536 7.87437 24.8562 8.24091 24.8562 8.72962Z" fill="white"/>
<path d="M45.3608 4.8387H48.4059V18.9362H45.3608V16.9062C44.2142 18.5039 42.5695 19.3028 40.4267 19.3028C38.4906 19.3028 36.8365 18.5885 35.4644 17.1599C34.0922 15.7126 33.4061 13.9551 33.4061 11.8875C33.4061 9.80103 34.0922 8.04354 35.4644 6.61499C36.8365 5.18644 38.4906 4.47217 40.4267 4.47217C42.5695 4.47217 44.2142 5.26163 45.3608 6.84055V4.8387ZM37.72 15.1299C38.5658 15.9757 39.6278 16.3987 40.906 16.3987C42.1842 16.3987 43.2462 15.9757 44.092 15.1299C44.9379 14.2652 45.3608 13.1844 45.3608 11.8875C45.3608 10.5905 44.9379 9.51908 44.092 8.67323C43.2462 7.80858 42.1842 7.37626 40.906 7.37626C39.6278 7.37626 38.5658 7.80858 37.72 8.67323C36.8741 9.51908 36.4512 10.5905 36.4512 11.8875C36.4512 13.1844 36.8741 14.2652 37.72 15.1299Z" fill="white"/>
<path d="M59.3705 4.47217C61.3065 4.47217 62.9606 5.19584 64.3328 6.64319C65.7049 8.07174 66.391 9.81983 66.391 11.8875C66.391 13.9739 65.7049 15.7314 64.3328 17.1599C62.9606 18.5885 61.3065 19.3028 59.3705 19.3028C57.2276 19.3028 55.5829 18.5133 54.4363 16.9344V24.0001H51.3913V4.8387H54.4363V6.86875C55.5829 5.27103 57.2276 4.47217 59.3705 4.47217ZM55.7051 15.1299C56.551 15.9757 57.613 16.3987 58.8911 16.3987C60.1693 16.3987 61.2313 15.9757 62.0772 15.1299C62.923 14.2652 63.346 13.1844 63.346 11.8875C63.346 10.5905 62.923 9.51908 62.0772 8.67323C61.2313 7.80858 60.1693 7.37626 58.8911 7.37626C57.613 7.37626 56.551 7.80858 55.7051 8.67323C54.8593 9.51908 54.4363 10.5905 54.4363 11.8875C54.4363 13.1844 54.8593 14.2652 55.7051 15.1299Z" fill="white"/>
<path d="M85.026 7.59908H81.5282V14.9414C81.5282 15.5227 81.6599 15.9446 81.9231 16.2072C82.1864 16.4509 82.5719 16.5916 83.0796 16.6291C83.6062 16.6478 84.2549 16.6384 85.026 16.6009V19.3292C82.6941 19.6105 81.0205 19.4136 80.005 18.7386C78.9895 18.0448 78.4818 16.7791 78.4818 14.9414V7.59908H75.8867V4.67387H78.4818V1.37568L81.5282 0.475616V4.67387H85.026V7.59908Z" fill="#2A343E"/>
<path d="M87.2248 19.4772V4.5259H90.2712V19.4772H87.2248Z" fill="#2A343E"/>
<path d="M99.9012 19.399C97.7763 19.399 95.9992 18.6864 94.57 17.2613C93.1596 15.8362 92.4544 14.083 92.4544 12.0016C92.4544 9.90141 93.1596 8.14817 94.57 6.74182C95.9992 5.31672 97.7763 4.60417 99.9012 4.60417C101.274 4.60417 102.525 4.93232 103.653 5.58861C104.781 6.24491 105.627 7.12622 106.192 8.23255L103.568 9.7514C103.249 9.07636 102.76 8.55132 102.101 8.17629C101.462 7.78252 100.719 7.58563 99.873 7.58563C98.6319 7.58563 97.5882 8.00753 96.742 8.85134C95.9146 9.69515 95.5009 10.7452 95.5009 12.0016C95.5009 13.2579 95.9146 14.308 96.742 15.1518C97.5882 15.9956 98.6319 16.4175 99.873 16.4175C100.7 16.4175 101.443 16.2206 102.101 15.8268C102.778 15.4331 103.286 14.908 103.625 14.2517L106.248 15.7424C105.646 16.8675 104.781 17.7582 103.653 18.4145C102.525 19.0708 101.274 19.399 99.9012 19.399Z" fill="#2A343E"/>
<path d="M120.154 19.3292H116.515L110.733 12.536V19.3292H107.686V0.458496H110.733V11.1859L116.205 4.67387H119.928L113.723 11.8609L120.154 19.3292Z" fill="#2A343E"/>
<path d="M122.907 13.2954C123.133 14.3642 123.65 15.1893 124.459 15.7706C125.267 16.3331 126.255 16.6144 127.421 16.6144C129.038 16.6144 130.251 16.0331 131.059 14.8705L133.57 16.3331C132.178 18.377 130.119 19.399 127.392 19.399C125.098 19.399 123.246 18.7052 121.835 17.3176C120.425 15.9112 119.72 14.1392 119.72 12.0016C119.72 9.90141 120.416 8.14817 121.807 6.74182C123.199 5.31672 124.985 4.60417 127.167 4.60417C129.235 4.60417 130.928 5.32609 132.244 6.76994C133.579 8.2138 134.247 9.96704 134.247 12.0297C134.247 12.3485 134.209 12.7704 134.134 13.2954H122.907ZM122.879 10.8202H131.172C130.965 9.6764 130.486 8.81384 129.734 8.23255C129 7.65126 128.135 7.36061 127.138 7.36061C126.01 7.36061 125.07 7.67001 124.318 8.2888C123.565 8.90759 123.086 9.7514 122.879 10.8202Z" fill="#2A343E"/>
<path d="M143.792 7.59908H140.295V14.9414C140.295 15.5227 140.426 15.9446 140.69 16.2072C140.953 16.4509 141.338 16.5916 141.846 16.6291C142.373 16.6478 143.021 16.6384 143.792 16.6009V19.3292C141.461 19.6105 139.787 19.4136 138.771 18.7386C137.756 18.0448 137.248 16.7791 137.248 14.9414V7.59908H134.653V4.67387H137.248V1.35856L140.295 0.458496V4.67387H143.792V7.59908Z" fill="#2A343E"/>
<path d="M148.5 8.85134C148.5 9.32012 148.754 9.69515 149.261 9.97642C149.788 10.2389 150.418 10.4733 151.151 10.6796C151.904 10.8671 152.656 11.0921 153.408 11.3546C154.16 11.6172 154.79 12.0672 155.298 12.7047C155.824 13.3235 156.088 14.1111 156.088 15.0674C156.088 16.4175 155.561 17.4769 154.508 18.2457C153.474 19.0146 152.167 19.399 150.587 19.399C149.196 19.399 148.002 19.1083 147.005 18.527C146.008 17.9457 145.284 17.1394 144.833 16.1081L147.456 14.5892C147.945 15.9393 148.989 16.6144 150.587 16.6144C152.186 16.6144 152.985 16.0893 152.985 15.0393C152.985 14.5892 152.722 14.2236 152.195 13.9423C151.687 13.6611 151.057 13.4267 150.305 13.2391C149.572 13.0329 148.829 12.7985 148.077 12.536C147.325 12.2735 146.685 11.8422 146.159 11.2421C145.651 10.6233 145.397 9.84516 145.397 8.90759C145.397 7.61375 145.886 6.57306 146.864 5.7855C147.861 4.99794 149.092 4.60417 150.559 4.60417C151.725 4.60417 152.759 4.86669 153.662 5.39172C154.583 5.89801 155.289 6.61056 155.777 7.52937L153.211 8.96385C152.722 7.89502 151.838 7.36061 150.559 7.36061C149.976 7.36061 149.487 7.49187 149.092 7.75439C148.697 7.99816 148.5 8.36381 148.5 8.85134Z" fill="#2A343E"/>
<path fill-rule="evenodd" clip-rule="evenodd" d="M86.8008 0.458496C86.8008 0.464203 86.8008 0.469919 86.8008 0.475644C86.8008 1.00068 86.9888 1.46009 87.3649 1.85387C87.7598 2.22889 88.2206 2.41641 88.7471 2.41641C89.2736 2.41641 89.725 2.22889 90.1011 1.85387C90.496 1.46009 90.6934 1.00068 90.6934 0.475644C90.6934 0.469919 90.6934 0.464203 90.6934 0.458496H86.8008Z" fill="#2A343E"/>
<path d="M158.056 0.404785C158.4 0.404785 158.707 0.48469 158.98 0.6445C159.252 0.798391 159.465 1.01443 159.619 1.29262C159.773 1.56489 159.85 1.87267 159.85 2.21597C159.85 2.55926 159.773 2.87 159.619 3.14819C159.465 3.42638 159.252 3.64538 158.98 3.80519C158.707 3.95908 158.4 4.03603 158.056 4.03603C157.707 4.03603 157.396 3.95908 157.124 3.80519C156.852 3.64538 156.639 3.42638 156.485 3.14819C156.331 2.87 156.254 2.55926 156.254 2.21597C156.254 1.87267 156.331 1.56489 156.485 1.29262C156.639 1.01443 156.852 0.798391 157.124 0.6445C157.396 0.48469 157.707 0.404785 158.056 0.404785ZM158.056 3.68089C158.482 3.68089 158.826 3.54476 159.086 3.27249C159.352 3.00022 159.486 2.64805 159.486 2.21597C159.486 1.78389 159.352 1.43171 159.086 1.15944C158.826 0.887175 158.482 0.75104 158.056 0.75104C157.624 0.75104 157.278 0.887175 157.017 1.15944C156.763 1.43171 156.636 1.78389 156.636 2.21597C156.636 2.64805 156.763 3.00022 157.017 3.27249C157.278 3.54476 157.624 3.68089 158.056 3.68089ZM158.855 1.84308C158.855 1.98513 158.817 2.10647 158.74 2.20709C158.669 2.30179 158.568 2.36986 158.438 2.41129L158.935 3.14819L158.376 3.15707L157.95 2.4468H157.799V3.15707H157.337V1.24823H158.189C158.391 1.24823 158.55 1.3015 158.669 1.40804C158.793 1.51458 158.855 1.65959 158.855 1.84308ZM157.799 2.06503H158.163C158.228 2.06503 158.281 2.04728 158.323 2.01176C158.37 1.97625 158.394 1.92594 158.394 1.86083C158.394 1.79572 158.37 1.74837 158.323 1.71878C158.281 1.68327 158.228 1.66551 158.163 1.66551H157.799V2.06503Z" fill="#2A343E"/>
</svg>
